<svg width="1290" height="1417" viewBox="0 0 1290 1417" fill="none" xmlns="http://www.w3.org/2000/svg">
<g id="Tech_Ring">
<g id="Ring 7">
<path id="path3821" d="M1192.97 392.177C1259.55 520.787 1283.85 667.126 1262.42 810.353C1240.99 953.581 1174.91 1086.4 1073.6 1189.88C972.292 1293.37 840.912 1362.25 698.172 1386.72C555.432 1411.19 408.61 1390 278.615 1326.17" stroke="#E63946" stroke-width="40"/>
<path id="path3051" d="M159.644 165.186C281.972 70.1098 432.806 19.0989 587.731 20.4104C742.656 21.7219 892.605 75.2792 1013.3 172.413" stroke="#E63946" stroke-width="40"/>
</g>
<g id="Ring 6">
<path id="path3843" d="M224.885 1222.75C173.667 1187.2 128.046 1144.2 89.5334 1095.17" stroke="black" stroke-width="29.9998"/>
<path id="path3845" d="M7 421.806C60.2918 314.927 142.323 225.02 243.884 162.182C345.444 99.3438 462.511 66.0619 581.939 66.0737C701.367 66.0854 818.427 99.3904 919.975 162.249C1021.52 225.107 1103.54 315.029 1156.81 421.919" stroke="black" stroke-width="15.0004"/>
<path id="path3839" d="M1223.79 683.938C1228.99 819.543 1191.11 953.312 1115.59 1066.06C1040.07 1178.81 930.778 1264.74 803.397 1311.54C676.016 1358.33 537.087 1363.58 406.536 1326.54C275.985 1289.5 160.519 1212.06 76.6978 1105.34" stroke="black" stroke-width="15.0004"/>
<path id="path3825" d="M1207.43 684.392C1211.21 782.526 1191.85 880.172 1150.91 969.439C1109.97 1058.71 1048.61 1137.09 971.779 1198.26C894.949 1259.43 804.805 1301.66 708.634 1321.55C612.463 1341.44 512.961 1338.42 418.171 1312.75" stroke="black" stroke-width="29.9998"/>
<path id="path3823" d="M21.578 429.144C73.464 325.081 153.307 237.525 252.157 176.29C351.008 115.055 464.96 82.5597 581.24 82.4474C697.521 82.3352 811.535 114.61 910.504 175.655C1009.47 236.699 1089.48 324.101 1141.57 428.063" stroke="black" stroke-width="29.9998"/>
</g>
<g id="Ring 5 - Black">
<path id="path3851" d="M786.684 1198.39C701.686 1233.93 608.905 1246.73 517.458 1235.56C426.012 1224.38 339.046 1189.61 265.105 1134.65" stroke="black" stroke-width="79.9975"/>
<path id="path3853" d="M1106.09 793.124C1088.21 903.934 1035.67 1006.23 956.027 1085.32" stroke="black" stroke-width="79.9975"/>
<path id="path3835" d="M1077.89 709.161C1077.89 840.738 1025.62 966.926 932.588 1059.97C839.556 1153 713.376 1205.27 581.808 1205.27C450.24 1205.27 324.06 1153 231.028 1059.97C137.995 966.926 85.7297 840.738 85.7297 709.161C85.7297 577.584 137.995 451.395 231.028 358.356C324.06 265.317 450.24 213.048 581.808 213.048C713.376 213.048 839.556 265.317 932.588 358.356C1025.62 451.395 1077.89 577.584 1077.89 709.161V709.161Z" stroke="black" stroke-width="70.0004"/>
<path id="path3829" d="M388.719 213.842C492.284 173.403 605.93 166.491 713.633 194.08C821.336 221.669 917.662 282.367 989.032 367.617" stroke="black" stroke-width="79.9975"/>
<path id="path3849" d="M62.2838 818.065C44.0378 731.549 47.6836 641.847 72.8904 557.097C98.0973 472.348 144.067 395.234 206.629 332.753" stroke="black" stroke-width="79.9975"/>
</g>
<g id="Ring 4">
<path id="path3863" d="M808.993 360.664C861.328 394.841 905.276 440.387 937.563 493.909C969.85 547.43 989.643 607.548 995.468 669.782C1001.29 732.016 992.999 794.762 971.205 853.345C949.41 911.928 914.677 964.838 869.593 1008.13" stroke="#E63946" stroke-width="40.0002"/>
<path id="path3865" d="M298.61 404.557C347.776 358.742 407.322 325.538 472.141 307.795C536.96 290.051 605.116 288.298 670.761 302.685" stroke="#E63946" stroke-width="40.0002"/>
<path id="path3861" d="M1031.62 774.816C1018.16 866.153 977.203 951.226 914.206 1018.72C851.21 1086.21 769.158 1132.92 678.964 1152.64C588.77 1172.36 494.71 1164.15 409.297 1129.1C323.883 1094.05 251.165 1033.83 200.816 956.445" stroke="#E63946" stroke-width="20.0001"/>
<path id="path3859" d="M375.851 1097.19C309.836 1062.19 253.824 1010.95 213.096 948.304" stroke="#E63946" stroke-width="50.0001"/>
<path id="path3857" d="M1017.12 772.508C1002.92 869 957.058 958.038 886.741 1025.63" stroke="#E63946" stroke-width="50.0001"/>
<path id="path3855" d="M618.888 270.123C702.976 277.22 783.249 308.353 850.134 359.809" stroke="#E63946" stroke-width="50.0001"/>
<path id="path3837" d="M282.177 386.464C309.499 361.033 339.947 339.183 372.787 321.44" stroke="#E63946" stroke-width="50.0001"/>
</g>
<g id="Ring 3">
<path id="path3869" d="M347.013 485.266C391.93 438.021 450.054 405.424 513.79 391.735C577.526 378.046 643.909 383.902 704.264 408.537C764.619 433.173 816.139 475.442 852.092 529.82C888.044 584.199 906.757 648.159 905.784 713.341" stroke="black" stroke-width="30.0004"/>
<path id="path3871" d="M281.063 723.604C278.54 673.456 288.596 623.473 310.317 578.203C332.038 532.933 364.734 493.812 405.43 464.401C446.126 434.99 493.53 416.221 543.33 409.804C593.13 403.386 643.744 409.522 690.567 427.655C737.39 445.788 778.936 475.34 811.425 513.625C843.913 551.909 866.313 597.71 876.586 646.859C886.859 696.008 884.68 746.946 870.245 795.039C855.811 843.131 829.58 886.85 793.94 922.219" stroke="black" stroke-width="30.0002"/>
<path id="path3867" d="M892.842 799.273C869.495 879.39 816.135 947.409 743.88 989.159C671.625 1030.91 586.047 1043.17 504.976 1023.39C423.905 1003.6 353.594 953.302 308.691 882.963C263.789 812.623 247.758 727.671 263.939 645.805" stroke="black" stroke-width="30.0004"/>
</g>
<g id="Ring 2">
<path id="path3875" d="M496.051 859.579C462.534 840.536 436.3 810.89 421.478 775.305C406.655 739.72 404.085 700.217 414.172 663.011" stroke="#E63946" stroke-width="30.0004"/>
<path id="path3877" d="M488.896 581.211C518.948 559.254 555.801 548.641 592.928 551.251C630.056 553.86 665.061 569.524 691.747 595.469C718.433 621.413 735.076 655.964 738.73 693.003C742.385 730.042 732.814 767.179 711.712 797.838C690.611 828.497 659.341 850.699 623.439 860.513C587.538 870.328 549.322 867.121 515.558 851.46C481.794 835.8 454.662 808.696 438.965 774.949C423.269 741.202 420.021 702.989 429.797 667.077" stroke="#E63946" stroke-width="14.9998"/>
<path id="path3873" d="M479.458 568.1C499.334 553.6 522.062 543.486 546.139 538.427C570.215 533.368 595.092 533.479 619.123 538.752C643.153 544.026 665.791 554.342 685.536 569.018C705.282 583.694 721.687 602.395 733.665 623.885C745.643 645.375 752.922 669.163 755.019 693.676C757.116 718.189 753.985 742.868 745.832 766.081C737.678 789.293 724.689 810.509 707.724 828.327C690.758 846.144 670.202 860.155 647.417 869.435" stroke="#E63946" stroke-width="30.0004"/>
</g>
<g id="Ring 1">
<path id="path3889" d="M470.005 728.038C466.659 708.9 468.28 689.224 474.713 670.892C481.146 652.56 492.175 636.186 506.746 623.335C521.317 610.485 538.941 601.588 557.934 597.496C576.926 593.405 596.65 594.255 615.22 599.966" stroke="black" stroke-width="15.0002"/>
<path id="path3891" d="M529.575 634.69C547.667 621.857 569.843 616.12 591.889 618.569C613.934 621.019 634.31 631.484 649.144 647.975C663.978 664.466 672.234 685.833 672.343 708.014C672.452 730.195 664.407 751.642 649.736 768.278" stroke="black" stroke-width="14.9999"/>
<path id="path3887" d="M484.525 725.644C481.048 705.925 483.642 685.614 491.964 667.402" stroke="black" stroke-width="24.9991"/>
<path id="path3885" d="M597.717 806.039C580.504 808.838 562.857 807.032 546.567 800.806C530.277 794.579 515.925 784.154 504.967 770.587" stroke="black" stroke-width="24.9991"/>
<path id="path3883" d="M661.86 650.441C675.033 668.599 681.637 690.698 680.588 713.106C679.538 735.515 670.897 756.899 656.084 773.746" stroke="black" stroke-width="24.9991"/>
<path id="path3879" d="M524.783 627.79C537.158 619.036 551.38 613.247 566.35 610.868C581.32 608.49 596.636 609.586 611.115 614.073" stroke="black" stroke-width="24.9991"/>
</g>
<g id="Ring 5 - Grey">
<path id="path3961" d="M1035.04 436.263C1089.53 526.97 1115.55 631.941 1109.72 737.595" stroke="#E63946" stroke-width="14.9999"/>
<path id="path3963" d="M53.5736 728.403C49.0151 607.483 86.0779 488.659 158.573 391.773" stroke="#E63946" stroke-width="14.9999"/>
<path id="path3959" d="M786.272 1196.02C717.841 1224.71 644.138 1238.67 569.955 1236.99C495.773 1235.32 422.774 1218.05 355.707 1186.3" stroke="#E63946" stroke-width="14.9999"/>
<path id="path3847" d="M1119.74 708.478C1119.74 851.137 1063.07 987.953 962.197 1088.83C861.322 1189.7 724.507 1246.37 581.848 1246.37C439.19 1246.37 302.374 1189.7 201.499 1088.83C100.624 987.953 43.9535 851.137 43.9535 708.478C43.9535 565.82 100.624 429.004 201.499 328.13C302.374 227.255 439.19 170.584 581.848 170.584C724.507 170.584 861.322 227.255 962.197 328.13C1063.07 429.004 1119.74 565.82 1119.74 708.478V708.478Z" stroke="#E63946" stroke-width="10.0003"/>
</g>
</g>
</svg>
